<mxfile host="app.diagrams.net" modified="2023-11-17T00:24:24.064Z" agent="Mozilla/5.0 (X11; Ubuntu; Linux x86_64; rv:109.0) Gecko/20100101 Firefox/110.0" etag="LVxWW5hO5h8GD6rDFMi9" version="22.1.2" type="github">
  <diagram id="R2lEEEUBdFMjLlhIrx00" name="Page-1">
    <mxGraphModel dx="1035" dy="1629" grid="1" gridSize="10" guides="1" tooltips="1" connect="1" arrows="1" fold="1" page="1" pageScale="1" pageWidth="850" pageHeight="1100" math="0" shadow="0" extFonts="Permanent Marker^https://fonts.googleapis.com/css?family=Permanent+Marker">
      <root>
        <mxCell id="0" />
        <mxCell id="1" parent="0" />
        <mxCell id="ONzOm0LFNNowDPU1LM_E-28" value="Admin(UPA)" style="swimlane;childLayout=stackLayout;horizontal=1;startSize=40;horizontalStack=0;rounded=1;fontSize=14;fontStyle=0;strokeWidth=2;resizeParent=0;resizeLast=1;shadow=0;dashed=0;align=center;arcSize=0;whiteSpace=wrap;html=1;" vertex="1" parent="1">
          <mxGeometry x="10" y="-560" width="270" height="180" as="geometry" />
        </mxCell>
        <mxCell id="ONzOm0LFNNowDPU1LM_E-29" value="&lt;div&gt;pk&lt;br&gt;&lt;/div&gt;&lt;div&gt;first_name&lt;/div&gt;&lt;div&gt;last_name&lt;/div&gt;&lt;div&gt;email&lt;br&gt;&lt;/div&gt;&lt;div&gt;rg&lt;br&gt;&lt;/div&gt;&lt;div&gt;cell_number&lt;/div&gt;&lt;div&gt;upa&lt;br&gt;&lt;/div&gt;&lt;div&gt;cnpj&lt;br&gt;&lt;/div&gt;" style="align=left;strokeColor=none;fillColor=none;spacingLeft=4;fontSize=12;verticalAlign=top;resizable=0;rotatable=0;part=1;html=1;" vertex="1" parent="ONzOm0LFNNowDPU1LM_E-28">
          <mxGeometry y="40" width="270" height="140" as="geometry" />
        </mxCell>
        <mxCell id="ONzOm0LFNNowDPU1LM_E-31" value="Baby_registers" style="swimlane;childLayout=stackLayout;horizontal=1;startSize=30;horizontalStack=0;rounded=1;fontSize=14;fontStyle=0;strokeWidth=2;resizeParent=0;resizeLast=1;shadow=0;dashed=0;align=center;arcSize=0;whiteSpace=wrap;html=1;" vertex="1" parent="1">
          <mxGeometry x="310" y="-360" width="270" height="220" as="geometry" />
        </mxCell>
        <mxCell id="ONzOm0LFNNowDPU1LM_E-32" value="&lt;div&gt;pk&lt;br&gt;&lt;/div&gt;&lt;div&gt;first_name&lt;/div&gt;&lt;div&gt;last_name&lt;/div&gt;&lt;div&gt;mother&lt;/div&gt;&lt;div&gt;father(optional)&lt;br&gt;&lt;/div&gt;&lt;div&gt;rg&lt;br&gt;&lt;/div&gt;&lt;div&gt;cell_number_mother&lt;/div&gt;&lt;div&gt;cell_number_father&lt;/div&gt;&lt;div&gt;cell_number_family(optional)&lt;/div&gt;&lt;div&gt;certidao_nascimento&lt;/div&gt;&lt;div&gt;upa_registered&lt;/div&gt;&lt;div&gt;mandatory_vaccinations_list&lt;br&gt;&lt;/div&gt;" style="align=left;strokeColor=none;fillColor=none;spacingLeft=4;fontSize=12;verticalAlign=top;resizable=0;rotatable=0;part=1;html=1;" vertex="1" parent="ONzOm0LFNNowDPU1LM_E-31">
          <mxGeometry y="30" width="270" height="190" as="geometry" />
        </mxCell>
        <mxCell id="ONzOm0LFNNowDPU1LM_E-36" style="edgeStyle=orthogonalEdgeStyle;rounded=0;orthogonalLoop=1;jettySize=auto;html=1;exitX=1;exitY=0.25;exitDx=0;exitDy=0;entryX=0.5;entryY=0;entryDx=0;entryDy=0;" edge="1" parent="1" source="ONzOm0LFNNowDPU1LM_E-29" target="ONzOm0LFNNowDPU1LM_E-31">
          <mxGeometry relative="1" as="geometry" />
        </mxCell>
        <mxCell id="ONzOm0LFNNowDPU1LM_E-37" value="Vaccines" style="swimlane;childLayout=stackLayout;horizontal=1;startSize=30;horizontalStack=0;rounded=1;fontSize=14;fontStyle=0;strokeWidth=2;resizeParent=0;resizeLast=1;shadow=0;dashed=0;align=center;arcSize=0;whiteSpace=wrap;html=1;" vertex="1" parent="1">
          <mxGeometry x="10" y="-130" width="270" height="100" as="geometry" />
        </mxCell>
        <mxCell id="ONzOm0LFNNowDPU1LM_E-38" value="&lt;div&gt;pk&lt;/div&gt;&lt;div&gt;vaccines_types&lt;/div&gt;&lt;div&gt;vacinnes_quantities_each_type&lt;/div&gt;&lt;div&gt;&lt;br&gt;&lt;/div&gt;&lt;div&gt;&lt;br&gt;&lt;/div&gt;" style="align=left;strokeColor=none;fillColor=none;spacingLeft=4;fontSize=12;verticalAlign=top;resizable=0;rotatable=0;part=1;html=1;" vertex="1" parent="ONzOm0LFNNowDPU1LM_E-37">
          <mxGeometry y="30" width="270" height="70" as="geometry" />
        </mxCell>
        <mxCell id="ONzOm0LFNNowDPU1LM_E-39" style="edgeStyle=orthogonalEdgeStyle;rounded=0;orthogonalLoop=1;jettySize=auto;html=1;exitX=0.5;exitY=1;exitDx=0;exitDy=0;entryX=0.5;entryY=0;entryDx=0;entryDy=0;" edge="1" parent="1" source="ONzOm0LFNNowDPU1LM_E-29" target="ONzOm0LFNNowDPU1LM_E-37">
          <mxGeometry relative="1" as="geometry" />
        </mxCell>
        <mxCell id="ONzOm0LFNNowDPU1LM_E-40" style="edgeStyle=orthogonalEdgeStyle;rounded=0;orthogonalLoop=1;jettySize=auto;html=1;exitX=1;exitY=0.5;exitDx=0;exitDy=0;entryX=0.5;entryY=1;entryDx=0;entryDy=0;" edge="1" parent="1" source="ONzOm0LFNNowDPU1LM_E-38" target="ONzOm0LFNNowDPU1LM_E-32">
          <mxGeometry relative="1" as="geometry" />
        </mxCell>
      </root>
    </mxGraphModel>
  </diagram>
</mxfile>
